<?xml version="1.0" encoding="UTF-8" standalone="no"?>
<svg width="200px" height="100px" viewBox="0 0 200 100" version="1.1" xmlns="http://www.w3.org/2000/svg" xmlns:xlink="http://www.w3.org/1999/xlink" xmlns:sketch="http://www.bohemiancoding.com/sketch/ns">
    <!-- Generator: Sketch 3.4.4 (17249) - http://www.bohemiancoding.com/sketch -->
    <title>logo</title>
    <desc>Created with Sketch.</desc>
    <defs></defs>
    <g id="Page-1" stroke="none" stroke-width="1" fill="none" fill-rule="evenodd" sketch:type="MSPage">
        <g id="logo" sketch:type="MSArtboardGroup" fill="#FFFFFF">
            <g sketch:type="MSLayerGroup" transform="translate(15.000000, 12.000000)" id="Shape">
                <path d="M116.792569,33.7624615 L116.063526,35.8043077 L102.368358,35.8043077 C98.8181241,35.8043077 95.9327883,35.3427692 93.7185182,34.4184615 C91.501781,33.4978462 89.4935182,31.9704615 87.6813942,29.8424615 C86.3047226,31.9163077 84.3137299,34.0652308 81.7047153,36.2892308 L80.0862628,34.7138462 C84.4753285,31.3956923 87.4322117,27.1938462 88.9593796,22.1009231 L91.0860657,22.6252308 C90.5988029,24.4578462 89.8487883,26.2313846 88.8360219,27.9396923 C91.5807299,31.3230769 94.6103942,33.168 97.9287153,33.4793846 L97.9287153,20.3249231 L80.3724526,20.3249231 L80.3724526,18.2436923 L116.508847,18.2436923 L116.508847,20.3249231 L100.08254,20.3249231 L100.08254,25.6196923 L114.219328,25.6196923 L114.219328,27.6812308 L100.08254,27.6812308 L100.08254,33.6418462 C101.311182,33.7230769 102.677985,33.7636923 104.194051,33.7636923 L116.792569,33.7624615 L116.792569,33.7624615 L116.792569,33.7624615 Z M111.283416,14.9895385 L85.779219,14.9895385 L85.779219,1.24553846 L111.283416,1.24553846 L111.283416,14.9895385 L111.283416,14.9895385 Z M108.992664,6.94646154 L108.992664,3.26892308 L88.0058248,3.26892308 L88.0058248,6.94646154 L108.992664,6.94646154 L108.992664,6.94646154 Z M108.992664,12.9464615 L108.992664,9.10646154 L88.0058248,9.10646154 L88.0058248,12.9464615 L108.992664,12.9464615 L108.992664,12.9464615 Z" sketch:type="MSShapeGroup"></path>
                <path d="M154.800299,27.8018462 C154.746022,29.3366154 154.579489,30.7126154 154.304401,31.9323077 C154.02808,33.1544615 153.630869,34.0344615 153.110299,34.5809231 C152.58973,35.1273846 152.059292,35.4744615 151.517752,35.6209231 C150.977445,35.7686154 148.760708,35.8867692 144.862606,35.9741538 C140.968204,36.0627692 137.505555,36.1058462 134.484526,36.1058462 C131.621394,36.1058462 129.584759,36.0676923 128.384489,35.9938462 C127.184219,35.9187692 126.276307,35.5113846 125.671854,34.7692308 C125.066168,34.0283077 124.759007,33.0301538 124.759007,31.7772308 L124.759007,14.8455385 L118.823036,16.384 L118.823036,14.0590769 L124.759007,12.544 L124.759007,3.85476923 L127.007818,3.85476923 L127.007818,11.9187692 L136.386701,9.51261538 L136.386701,0.194461538 L138.615774,0.194461538 L138.615774,8.98584615 L151.902628,5.59138462 C150.863956,13.6738462 149.560066,20.1809231 147.995891,25.1126154 L145.890175,24.6695385 C147.412409,19.6566154 148.501657,14.288 149.150518,8.56246154 L138.617007,11.2516923 L138.617007,28.3076923 L136.389168,28.3076923 L136.389168,11.7944615 L127.009051,14.24 L127.009051,32.1476923 C127.009051,32.3630769 127.10527,32.6966154 127.302642,33.1470769 C127.497547,33.5987692 127.931766,33.8412308 128.599131,33.8756923 C129.26773,33.9101538 132.039577,33.9273846 136.914672,33.9273846 C145.668131,33.9273846 150.418635,33.7723077 151.183453,33.4609231 C151.94827,33.152 152.452803,30.9341538 152.692117,26.8135385 L154.800299,27.8018462 L154.800299,27.8018462 Z" sketch:type="MSShapeGroup"></path>
                <path d="M9.55775182,32.4898462 C9.33570803,32.6806154 9.0729562,32.9156923 8.76949635,33.1926154 L11.5832847,36.0861538 C14.373635,33.5495385 16.7741752,30.5083077 18.7947737,26.9513846 C18.9033285,26.7310769 19.056292,26.4541538 19.2487299,26.1255385 L15.9772847,24.0172308 C14.2095693,27.3784615 12.0680803,30.2018462 9.55775182,32.4898462 L9.55775182,32.4898462 Z" sketch:type="MSShapeGroup"></path>
                <path d="M7.65187591,8.64123077 L10.4274234,5.20984615 C10.2325182,5.04492308 10.0807883,4.90953846 9.97223358,4.79876923 C8.47837226,3.53107692 6.5330219,2.208 4.12878102,0.829538462 L1.51976642,3.76492308 C1.73934307,3.93107692 1.93548175,4.05415385 2.09954745,4.13538462 C4.36439416,5.54092308 6.21352555,7.04369231 7.65187591,8.64123077 L7.65187591,8.64123077 Z" sketch:type="MSShapeGroup"></path>
                <path d="M7.07209489,14.7089231 C6.15924818,14.0763077 5.08110219,13.4289231 3.83765693,12.7655385 L1.22987591,15.616 L4.41867153,17.9323077 C4.75913869,18.1735385 5.1440146,18.4652308 5.55356204,18.7864615 C3.77721168,26.0123077 1.4050438,31.0043077 0,32.7433846 L3.78584672,35.4806154 C6.44050365,32.7224615 9.1630073,22.9883077 10.3015985,17.0670769 L7.07209489,14.7089231 L7.07209489,14.7089231 Z" sketch:type="MSShapeGroup"></path>
                <path d="M35.2198467,10.5169231 L12.5775474,10.4713846 L12.5775474,21.7661538 L22.6410657,21.8129231 L22.6410657,37.4953846 L26.4145766,37.4953846 L26.4145766,22.4344615 L35.2198467,22.4344615 L35.2198467,10.5169231 L35.2198467,10.5169231 Z M31.4463358,18.0467692 L16.352292,18.0024615 L16.352292,14.2363077 L31.4463358,14.2818462 L31.4463358,18.0467692 L31.4463358,18.0467692 Z" sketch:type="MSShapeGroup"></path>
                <path d="M26.6242847,4.864 L25.711438,2.06276923 C25.4079781,1.31692308 25.0502409,0.468923077 24.6357591,0 L20.6155328,0.374153846 L21.5666204,2.57846154 C21.7898978,3.01784615 22.0514161,3.60861538 22.3536423,4.864 L10.0635182,4.864 L10.0635182,8.63015385 L37.7351095,8.63015385 L37.7351095,4.864 L26.6242847,4.864 L26.6242847,4.864 Z" sketch:type="MSShapeGroup"></path>
                <path d="M28.9421752,26.3310769 C31.3969927,29.4461538 33.4027883,32.4873846 34.9521606,35.4633846 L38.4296131,33.1052308 C36.2745547,29.6369231 34.1046934,26.6732308 31.9261971,24.2215385 L28.9421752,26.3310769 L28.9421752,26.3310769 Z" sketch:type="MSShapeGroup"></path>
                <path d="M62.2364088,15.4313846 L77.0183577,15.4313846 L77.0183577,19.5224615 L61.9958613,19.5224615 L61.9958613,30.1858462 L61.9958613,30.6818462 C61.9958613,32.1723077 61.7010365,33.2529231 61.1076861,33.9261538 C60.510635,34.6043077 59.2499197,34.9415385 57.3169051,34.9415385 L50.8554307,34.9809231 L49.9018759,30.8073846 L56.2819343,31.0535385 C57.1639416,31.0535385 57.6043285,30.6289231 57.6043285,29.7735385 L57.6043285,19.5212308 L41.3840292,19.5212308 L41.3840292,15.4301538 L57.0282482,15.4301538 L57.0282482,15.4301538 C60.3786423,12.5243077 65.644781,8.74584615 68.2932701,6.10338462 L44.889854,6.10338462 L44.889854,2.096 L73.6765985,2.096 L73.6765985,6.14523077 C70.0992263,9.712 66.0765328,12.5316923 62.2364088,15.4313846 L62.2364088,15.4313846 Z" sketch:type="MSShapeGroup"></path>
                <path d="M163.105971,67.9667692 C159.561905,65.1396923 153.371818,65.7255385 149.171489,65.7243077 C141.244526,65.7218462 133.287956,65.7427692 125.368394,65.8596923 C116.344781,65.9975385 107.385314,67.0043077 98.5640073,68.8566154 C101.427139,66.0110769 103.881956,63.456 105.443664,62.4738462 C106.67354,61.6972308 104.819474,61.3169231 104.091664,61.7686154 C101.68619,63.2603077 98.8156569,64.2929231 95.9463577,64.3593846 C94.2921314,64.3950769 91.1292409,63.7698462 91.0885328,63.4116923 C90.9331022,62.6744615 92.7822336,61.968 94.0577518,61.5889231 C96.659365,60.672 99.3275912,60.8209231 101.697292,61.9224615 C102.370825,62.2363077 104.326044,61.2775385 103.394693,60.848 C99.8456934,59.2012308 95.5010365,59.5667692 91.5671606,61.2467692 C91.5030146,61.2726154 91.4475036,61.3070769 91.3870584,61.3316923 C90.5445255,61.6073846 89.7636715,62.0886154 88.9815839,62.6153846 C88.8397226,62.7027692 88.6855255,62.7876923 88.5498321,62.8763077 C88.4844526,62.9156923 88.4326423,62.9636923 88.3820657,63.0166154 C87.4556496,63.6356923 86.495927,64.2350769 85.3746058,64.5058462 C82.6940438,65.1470769 80.0504891,64.8012308 78.8292482,62.2018462 C78.625708,61.7686154 77.9854818,61.8695385 77.6141752,61.9581538 C76.6236131,62.1895385 75.6959635,62.4344615 74.794219,62.7421538 C75.0397007,62.3163077 75.2568102,61.8756923 75.4258102,61.4030769 C75.9007372,60.4283077 73.9270146,60.8935385 73.5692774,61.2110769 C72.3936788,62.2547692 71.2304161,63.2996923 70.0350803,64.3212308 C65.3289854,68.3347692 67.1189051,64.3975385 67.7307591,62.7249231 C67.8047737,62.5243077 67.7393942,62.4073846 67.6037007,62.3495385 C68.3537153,62.4049231 69.9400949,61.488 68.7965693,61.1741538 C64.091708,59.8769231 57.3465109,60.976 54.3908613,65.2258462 C54.2156934,65.2701538 54.0701314,65.3267692 53.9924161,65.3833846 C49.7933212,68.384 46.7365182,66.6486154 48.1785693,64.4270769 C48.5128686,64.112 48.8286642,63.7809231 49.1222555,63.4326154 C49.4454526,63.1753846 49.8118248,62.9156923 50.2694818,62.6683077 C50.8714672,62.3396923 50.7604453,62.0246154 50.0955474,62.0246154 C49.3998102,62.0246154 48.2760219,61.984 47.8393358,62.6683077 C47.7098102,62.8713846 47.5568467,63.0363077 47.4199197,63.2233846 C46.8956496,63.5975385 46.2455547,64.0455385 45.9396277,64.5846154 C45.8409416,64.7593846 45.7632263,64.9255385 45.7015474,65.0855385 C43.6649124,66.7556923 40.9831168,67.5581538 37.5994161,67.8990769 C32.3604161,67.9064615 27.3557956,64.2793846 22.573219,61.6898462 C26.2529781,58.7790769 29.438073,54.864 33.228854,50.1735385 C33.6828102,49.6098462 34.0763212,49.0683077 34.4389927,48.5415385 C35.9143504,48.5058462 37.3218613,48.368 38.6097153,48.0393846 C41.0151898,47.4264615 45.1365693,45.9753846 46.2702263,43.568 C47.7887591,40.3310769 40.2034964,41.2652308 38.9551168,41.7070769 C36.2141095,42.672 34.4562628,44.8098462 32.7267883,47.0203077 C27.2299708,46.7323077 21.4568321,45.7698462 18.5209197,48.2793846 C18.2334964,48.5255385 17.0751679,49.0067692 18.091635,48.9144615 L18.2988759,48.864 C22.1772409,47.7415385 27.0177956,48.3396923 31.5462555,48.5156923 C31.2551314,48.8763077 30.959073,49.2344615 30.653146,49.5815385 C27.2965839,53.4018462 24.1595985,57.2467692 20.3688175,60.5846154 C20.2627299,60.5366154 20.1529416,60.4812308 20.046854,60.4344615 C16.2486715,58.768 11.6178248,58.96 7.48781022,59.3772308 C5.15758394,59.6110769 0.455189781,61.072 0.0320729927,63.808 C-0.579781022,67.7993846 7.97260584,67.3415385 10.6605693,66.9046154 C14.4883577,66.2830769 17.5797007,65.0510769 20.3244088,63.3009231 C24.5358394,65.4326154 28.5560657,68.0381538 33.3916861,68.7704615 C33.4977737,68.8073846 33.6248321,68.8406154 33.791365,68.8615385 C34.4772336,68.9415385 35.1877737,68.9772308 35.9155839,68.9710769 C37.7067372,68.9809231 39.6163139,68.7175385 41.6911898,68.0738462 C41.751635,68.0553846 41.7787737,68.0344615 41.8256496,68.0147692 C43.1542117,67.5975385 44.4346642,67.0326154 45.6090292,66.3421538 C45.7730949,66.8787692 46.2319854,67.3206154 46.9807664,67.68 C49.0951168,68.7076923 51.7645766,67.8006154 53.8813942,66.6227692 C53.951708,66.6818462 54.0405255,66.7310769 54.1651168,66.7569231 C57.9558978,67.5987692 61.7725839,66.5661538 65.0687007,64.6609231 C64.855292,65.4436923 64.6727226,66.2326154 64.4778175,67.0535385 C64.3667956,67.5249231 65.1266788,67.5409231 65.4042336,67.5064615 C67.8467153,67.1729231 69.7723285,66.1046154 71.5622482,64.7396923 C71.9051825,64.9575385 73.0376058,64.7618462 73.2460803,64.6473846 C74.4303139,64.0381538 75.6638905,63.5753846 76.9381752,63.2455385 C78.7120584,66.3163077 82.3511095,66.5083077 85.8964088,65.5138462 C86.970854,65.2123077 87.9897883,64.6892308 88.9519781,64.1243077 C92.1913504,66.1218462 96.2609197,66.0307692 99.9937226,64.9169231 C98.3444307,66.3827692 96.7740876,67.9729231 95.2099124,69.552 C89.095073,70.7741538 82.0550511,71.7341538 77.6363796,76.3076923 C77.4525766,76.4972308 77.3464891,76.7052308 77.5093212,76.9452308 C82.142635,83.6123077 90.3619562,76.8443077 96.9887299,70.4073846 C97.0898832,70.3803077 97.1996715,70.3581538 97.3008248,70.3335385 C110.079445,67.2689231 123.184964,66.9907692 136.259642,67.2381538 C140.286036,67.3156923 144.329701,67.0412308 148.353628,67.0067692 C152.056825,66.9747692 158.048307,66.3704615 161.118679,68.8221538 C161.745336,69.3243077 163.737562,68.4701538 163.105971,67.9667692 L163.105971,67.9667692 Z M37.8584672,44.0233846 C39.2450073,42.7926154 41.7158613,41.5692308 43.1838175,42.7963077 C44.350781,43.7710769 43.7833358,44.4172308 42.9568394,45.0781538 C41.0312263,46.6215385 38.3432628,47.0596923 35.417219,47.088 C36.1943723,45.9175385 36.8987445,44.8787692 37.8584672,44.0233846 L37.8584672,44.0233846 Z M4.93430657,65.6676923 C3.46264964,65.4313846 2.50786131,65.4215385 2.41534307,63.9236923 C2.1599927,59.8153846 8.82747445,60.1009231 11.6141241,60.3987692 C13.9825912,60.6498462 16.1536861,61.3772308 18.2396642,62.304 C14.4562847,65.0313846 9.70084672,66.4295385 4.93430657,65.6676923 L4.93430657,65.6676923 Z M56.3164745,65.2332308 C58.1026934,61.7390769 64.1509197,61.4621538 67.3557518,62.2966154 C66.827781,62.272 65.9519416,62.5673846 65.8014453,62.6843077 C64.7319343,63.3513846 63.6611898,64.0147692 62.5953796,64.6793846 C60.5439416,65.9581538 58.4480949,66.1415385 56.3164745,65.2332308 L56.3164745,65.2332308 Z M90.455708,74.0553846 C89.1283796,75.1667692 87.719635,76.1366154 86.2368759,77.0301538 C85.1069197,77.7243077 83.8758102,78.1193846 82.5386131,78.2227692 C82.0895912,78.2350769 78.9378029,77.1655385 80.2256569,75.8363077 C83.2232482,72.736 88.9421095,71.8683077 93.7271533,71.0387692 C92.6576423,72.0898462 91.5782628,73.1113846 90.455708,74.0553846 L90.455708,74.0553846 Z" sketch:type="MSShapeGroup"></path>
                <path d="M53.4089343,58.2104615 C53.9874818,58.3310769 55.9192628,57.4153846 54.756,57.1716923 C53.0265255,56.8086154 51.3982044,56.1206154 50.2768832,54.7150769 C49.8747372,54.2166154 47.8232993,54.9427692 48.2723212,55.5052308 C49.5478394,57.0978462 51.4672847,57.7993846 53.4089343,58.2104615 L53.4089343,58.2104615 Z" sketch:type="MSShapeGroup"></path>
                <path d="M165.983044,25.9827692 C167.36835,25.9827692 168.550117,26.4750769 169.53081,27.4609231 C170.51027,28.4467692 171,29.616 171,30.9673846 C171,32.4246154 170.493,33.6455385 169.475299,34.6301538 C168.458832,35.616 167.277066,36.1095385 165.937401,36.1095385 C164.639679,36.1095385 163.476416,35.6196923 162.44638,34.6424615 C161.415109,33.6652308 160.899474,32.4393846 160.899474,30.9686154 C160.899474,29.5716923 161.396606,28.3913846 162.392102,27.4289231 C163.385131,26.464 164.581701,25.9827692 165.983044,25.9827692 L165.983044,25.9827692 Z M166.137241,33.6812308 C166.815708,33.6812308 167.394255,33.4092308 167.872883,32.8652308 C168.352745,32.3224615 168.589591,31.7107692 168.589591,31.0350769 C168.589591,30.3593846 168.355212,29.7526154 167.883985,29.2147692 C167.412759,28.6769231 166.770066,28.4086154 165.959606,28.4086154 C165.194788,28.4086154 164.568131,28.6695385 164.082102,29.1926154 C163.593606,29.7144615 163.353058,30.32 163.353058,31.0129231 C163.353058,31.7316923 163.604708,32.3581538 164.112942,32.8861538 C164.621175,33.4166154 165.294708,33.6812308 166.137241,33.6812308 L166.137241,33.6812308 Z" sketch:type="MSShapeGroup"></path>
            </g>
        </g>
    </g>
</svg>